<svg width="24" height="25" viewBox="0 0 24 25" fill="none" xmlns="http://www.w3.org/2000/svg">
<path d="M6.75 3.97363V6.22363M17.25 3.97363V6.22363M3 19.7236V8.47363C3 7.23099 4.00736 6.22363 5.25 6.22363H18.75C19.9926 6.22363 21 7.23099 21 8.47363V19.7236M3 19.7236C3 20.9663 4.00736 21.9736 5.25 21.9736H18.75C19.9926 21.9736 21 20.9663 21 19.7236M3 19.7236V12.2236C3 10.981 4.00736 9.97363 5.25 9.97363H18.75C19.9926 9.97363 21 10.981 21 12.2236V19.7236M12 13.7236H12.0075V13.7311H12V13.7236ZM12 15.9736H12.0075V15.9811H12V15.9736ZM12 18.2236H12.0075V18.2311H12V18.2236ZM9.75 15.9736H9.7575V15.9811H9.75V15.9736ZM9.75 18.2236H9.7575V18.2311H9.75V18.2236ZM7.5 15.9736H7.5075V15.9811H7.5V15.9736ZM7.5 18.2236H7.5075V18.2311H7.5V18.2236ZM14.25 13.7236H14.2575V13.7311H14.25V13.7236ZM14.25 15.9736H14.2575V15.9811H14.25V15.9736ZM14.25 18.2236H14.2575V18.2311H14.25V18.2236ZM16.5 13.7236H16.5075V13.7311H16.5V13.7236ZM16.5 15.9736H16.5075V15.9811H16.5V15.9736Z" stroke="#8AC9F0" stroke-width="1.5" stroke-linecap="round" stroke-linejoin="round"/>
</svg>
