<svg width="48" height="48" viewBox="0 0 48 48" fill="none" xmlns="http://www.w3.org/2000/svg">
<path fill-rule="evenodd" clip-rule="evenodd" d="M26 4.5C25.1716 4.5 24.5 5.17157 24.5 6C24.5 6.82843 25.1716 7.5 26 7.5C27.9042 7.5 29.7897 7.87505 31.5489 8.60375C33.3081 9.33244 34.9066 10.4005 36.253 11.747C37.5995 13.0934 38.6676 14.6919 39.3963 16.4511C40.1249 18.2103 40.5 20.0958 40.5 22C40.5 22.8284 41.1716 23.5 42 23.5C42.8284 23.5 43.5 22.8284 43.5 22C43.5 19.7019 43.0473 17.4262 42.1679 15.303C41.2884 13.1798 39.9994 11.2507 38.3744 9.62563C36.7493 8.00061 34.8202 6.71157 32.697 5.83211C30.5738 4.95265 28.2981 4.5 26 4.5ZM42 38V34.7081C42 33.0725 41.0042 31.6017 39.4856 30.9942L35.4173 29.3669C33.4857 28.5943 31.2844 29.4312 30.354 31.292L30 32C30 32 25 31 21 27C17 23 16 18 16 18L16.708 17.646C18.5688 16.7156 19.4057 14.5143 18.6331 12.5827L17.0058 8.51444C16.3983 6.99581 14.9275 6 13.2919 6H10C7.79086 6 6 7.79086 6 10C6 27.6731 20.3269 42 38 42C40.2091 42 42 40.2091 42 38ZM24.5 14C24.5 13.1716 25.1716 12.5 26 12.5C27.2476 12.5 28.4829 12.7457 29.6355 13.2231C30.7881 13.7006 31.8354 14.4003 32.7175 15.2825C33.5997 16.1646 34.2994 17.2119 34.7769 18.3645C35.2543 19.5171 35.5 20.7524 35.5 22C35.5 22.8284 34.8284 23.5 34 23.5C33.1716 23.5 32.5 22.8284 32.5 22C32.5 21.1464 32.3319 20.3012 32.0052 19.5126C31.6786 18.7239 31.1998 18.0074 30.5962 17.4038C29.9926 16.8002 29.2761 16.3214 28.4874 15.9948C27.6988 15.6681 26.8536 15.5 26 15.5C25.1716 15.5 24.5 14.8284 24.5 14Z" fill="white"/>
</svg>
