<svg width="40" height="40" viewBox="0 0 40 40" fill="none" xmlns="http://www.w3.org/2000/svg">
<path d="M10 6.66671C10 7.55076 9.64882 8.39861 9.0237 9.02373C8.39858 9.64885 7.55073 10 6.66668 10C5.78262 10 4.93478 9.64885 4.30965 9.02373C3.68453 8.39861 3.33334 7.55076 3.33334 6.66671C3.33334 5.78265 3.68453 4.93481 4.30965 4.30968C4.93478 3.68456 5.78262 3.33337 6.66668 3.33337C7.55073 3.33337 8.39858 3.68456 9.0237 4.30968C9.64882 4.93481 10 5.78265 10 6.66671ZM10 6.66671H21.6667C22.1087 6.66671 22.5326 6.8423 22.8452 7.15486C23.1577 7.46742 23.3333 7.89135 23.3333 8.33337V25C23.3333 25.4421 23.1577 25.866 22.8452 26.1786C22.5326 26.4911 22.1087 26.6667 21.6667 26.6667H18.3333M30 16.6667C30 17.5508 30.3512 18.3986 30.9763 19.0237C31.6014 19.6489 32.4493 20 33.3333 20C34.2174 20 35.0652 19.6489 35.6904 19.0237C36.3155 18.3986 36.6667 17.5508 36.6667 16.6667C36.6667 15.7827 36.3155 14.9348 35.6904 14.3097C35.0652 13.6846 34.2174 13.3334 33.3333 13.3334C32.4493 13.3334 31.6014 13.6846 30.9763 14.3097C30.3512 14.9348 30 15.7827 30 16.6667ZM30 16.6667H23.3333M10 20C10 20.8841 9.64882 21.7319 9.0237 22.3571C8.39858 22.9822 7.55073 23.3334 6.66668 23.3334C5.78262 23.3334 4.93478 22.9822 4.30965 22.3571C3.68453 21.7319 3.33334 20.8841 3.33334 20C3.33334 19.116 3.68453 18.2681 4.30965 17.643C4.93478 17.0179 5.78262 16.6667 6.66668 16.6667C7.55073 16.6667 8.39858 17.0179 9.0237 17.643C9.64882 18.2681 10 19.116 10 20ZM10 20H15C15.442 20 15.866 20.1756 16.1785 20.4882C16.4911 20.8008 16.6667 21.2247 16.6667 21.6667V31.6667C16.6667 32.1087 16.4911 32.5327 16.1785 32.8452C15.866 33.1578 15.442 33.3334 15 33.3334H10M10 33.3334C10 34.2174 9.64882 35.0653 9.0237 35.6904C8.39858 36.3155 7.55073 36.6667 6.66668 36.6667C5.78262 36.6667 4.93478 36.3155 4.30965 35.6904C3.68453 35.0653 3.33334 34.2174 3.33334 33.3334C3.33334 32.4493 3.68453 31.6015 4.30965 30.9764C4.93478 30.3512 5.78262 30 6.66668 30C7.55073 30 8.39858 30.3512 9.0237 30.9764C9.64882 31.6015 10 32.4493 10 33.3334Z" stroke="#2CD0C2" stroke-width="1.5" stroke-linecap="round" stroke-linejoin="round"/>
</svg>
