<svg width="44" height="44" viewBox="0 0 44 44" fill="none" xmlns="http://www.w3.org/2000/svg">
<path d="M26.5 17.5V17.51M14 18C14 16.9391 14.4214 15.9217 15.1716 15.1716C15.9217 14.4214 16.9391 14 18 14H26C27.0609 14 28.0783 14.4214 28.8284 15.1716C29.5786 15.9217 30 16.9391 30 18V26C30 27.0609 29.5786 28.0783 28.8284 28.8284C28.0783 29.5786 27.0609 30 26 30H18C16.9391 30 15.9217 29.5786 15.1716 28.8284C14.4214 28.0783 14 27.0609 14 26V18ZM19 22C19 22.7956 19.3161 23.5587 19.8787 24.1213C20.4413 24.6839 21.2044 25 22 25C22.7956 25 23.5587 24.6839 24.1213 24.1213C24.6839 23.5587 25 22.7956 25 22C25 21.2044 24.6839 20.4413 24.1213 19.8787C23.5587 19.3161 22.7956 19 22 19C21.2044 19 20.4413 19.3161 19.8787 19.8787C19.3161 20.4413 19 21.2044 19 22Z" stroke="#008ADF" stroke-width="1.5" stroke-linecap="round" stroke-linejoin="round"/>
</svg>
