<svg width="44" height="44" viewBox="0 0 44 44" fill="none" xmlns="http://www.w3.org/2000/svg">
<path d="M18 21V26M18 18V18.01M22 26V21M26 26V23C26 22.4696 25.7893 21.9609 25.4142 21.5858C25.0391 21.2107 24.5304 21 24 21C23.4696 21 22.9609 21.2107 22.5858 21.5858C22.2107 21.9609 22 22.4696 22 23M14 16C14 15.4696 14.2107 14.9609 14.5858 14.5858C14.9609 14.2107 15.4696 14 16 14H28C28.5304 14 29.0391 14.2107 29.4142 14.5858C29.7893 14.9609 30 15.4696 30 16V28C30 28.5304 29.7893 29.0391 29.4142 29.4142C29.0391 29.7893 28.5304 30 28 30H16C15.4696 30 14.9609 29.7893 14.5858 29.4142C14.2107 29.0391 14 28.5304 14 28V16Z" stroke="#008ADF" stroke-width="1.5" stroke-linecap="round" stroke-linejoin="round"/>
</svg>
