<svg width="73" height="62" viewBox="0 0 73 62" fill="none" xmlns="http://www.w3.org/2000/svg">
<path d="M43.4 16.6059C43.4341 24.0896 43.4682 31.5733 43.5022 39.0563C41.3163 40.1689 38.8659 41.7111 36.503 43.8615C35.9207 44.3911 35.383 44.9222 34.8874 45.4467C34.8696 35.2667 34.8519 25.0859 34.8333 14.9059L43.4 16.6059Z" fill="#003759"/>
<path d="M46.177 16.9637L47.0541 17.1318V37.4074C46.7896 37.5274 46.5259 37.6489 46.2608 37.7689C46.2341 30.8341 46.2052 23.8985 46.177 16.9637Z" fill="#003759"/>
<path d="M52.7119 33.3082C52.7163 34.2578 52.0163 35.1452 50.8452 35.68C50.2423 35.9541 49.64 36.2296 49.0371 36.5037V17.5119L52.643 18.2022C52.6652 23.3385 52.6889 28.1719 52.7119 33.3082Z" fill="#003759"/>
<path d="M34.8341 9.8311C34.8341 10.657 34.8341 11.4822 34.8341 12.3081C27.6022 13.8437 20.3696 15.3793 13.1378 16.9148C20.3696 14.5533 27.6022 12.1918 34.8341 9.8311Z" fill="#008CE2"/>
<path d="M16.9022 19.4659C16.5393 20.3244 16.1756 21.1822 15.8126 22.0407L17.5956 21.7333V32.0904C17.5956 32.8185 17.9444 33.4993 18.5267 33.9081C19.0422 34.2704 19.557 34.6326 20.0726 34.9948C20.0726 29.6015 20.0726 24.2081 20.0726 18.8148C19.0156 19.0319 17.9593 19.2489 16.9022 19.4659Z" fill="#008CE2"/>
<path d="M29.4733 30.7822L24.9763 29.4963C24.9763 32.2044 24.9763 35.3577 24.9763 38.0659C26.4755 38.9903 27.9741 39.9155 29.4733 40.84C29.4733 37.2074 29.4733 34.4148 29.4733 30.7822Z" fill="#008CE2"/>
<path d="M25.0859 17.857L29.583 16.9548C29.583 20.0444 29.583 24.1867 29.583 27.2763L25.0859 26.2244" fill="#008CE2"/>
<path d="M59.2015 23.6526L59.186 23.6622C59.166 23.6703 59.1245 23.6748 59.0356 23.6237C58.7193 23.4422 58.403 23.2615 58.0867 23.08C57.8215 22.1644 57.5563 21.2489 57.2919 20.3341C57.4148 21.1778 57.5378 22.0215 57.6608 22.8659C57.4104 22.76 57.1593 22.6533 56.9082 22.5474C56.8385 22.0866 56.7741 21.5933 56.6067 21.1526C56.5763 21.5992 56.6393 22.0429 56.7452 22.5148C56.6608 22.4815 56.5711 22.4481 56.4785 22.4163C56.2941 22.3533 56.1178 22.3037 55.9519 22.2629C55.8748 20.8437 55.8326 19.357 55.8363 17.8066C55.8385 16.8022 55.86 15.8252 55.8978 14.877L52.723 16.1978C46.76 14.9015 40.7971 13.6044 34.8341 12.3081C34.8341 9.4348 34.8341 6.56221 34.8341 3.68888C29.2037 5.60443 23.5733 7.51925 17.943 9.4348C23.5733 6.46295 29.2037 3.49036 34.8341 0.518509C42.8422 4.89406 50.8504 9.26961 58.8585 13.6452L56.6489 14.5644C56.7511 16.1415 57.0408 17.3592 57.2734 18.1526C57.7956 19.9326 59.2223 23.6407 59.2015 23.6526Z" fill="#003759"/>
<path d="M1.87111 49.6555L2.16519 49.8585L0.835556 50.3481V49.417L2.80222 48.6822V53.7007H1.87111V49.6555Z" fill="#008CE2"/>
<path d="M4.7237 53.6837C4.5437 53.6348 4.38519 53.5704 4.24741 53.4911C4.10963 53.4118 3.99408 53.3207 3.90074 53.2185C3.80741 53.1163 3.72815 53.0111 3.66296 52.9037L4.39778 52.2037C4.44 52.2785 4.49259 52.3533 4.55556 52.4274C4.61852 52.5022 4.68963 52.5689 4.76889 52.6267C4.84815 52.6852 4.93778 52.7318 5.03852 52.7667C5.13852 52.8015 5.25185 52.8193 5.37778 52.8193C5.48 52.8193 5.57111 52.8074 5.65111 52.7844C5.73037 52.7615 5.79778 52.7259 5.85407 52.6793C5.91037 52.6326 5.95333 52.5778 5.9837 52.5148C6.01407 52.4518 6.02889 52.3807 6.02889 52.3015C6.02889 52.1852 5.99778 52.0859 5.93407 52.0037C5.87111 51.9222 5.78963 51.8511 5.68889 51.7904C5.58815 51.7296 5.47333 51.6741 5.34222 51.6222C5.21185 51.5711 5.08 51.5163 4.94667 51.4578C4.81407 51.3993 4.68148 51.3356 4.55111 51.2652C4.42074 51.1956 4.30519 51.1089 4.20445 51.0059C4.1037 50.9037 4.02222 50.7807 3.95926 50.6385C3.8963 50.4963 3.86445 50.3244 3.86445 50.1237C3.86445 49.9 3.9037 49.7015 3.9837 49.5289C4.06296 49.3563 4.17482 49.2104 4.32 49.0911C4.46445 48.9719 4.6363 48.8822 4.83407 48.8215C5.03259 48.7607 5.25037 48.7304 5.48815 48.7304C5.70296 48.7304 5.89185 48.7541 6.05481 48.8007C6.21778 48.8474 6.36 48.9067 6.48148 48.9793C6.60296 49.0518 6.70296 49.1311 6.78222 49.217C6.86148 49.3037 6.92444 49.3859 6.97111 49.4652L6.27852 50.1022C6.18074 49.9667 6.06889 49.8607 5.94222 49.7837C5.8163 49.7067 5.66667 49.6681 5.49407 49.6681C5.41482 49.6681 5.34222 49.6763 5.27704 49.6926C5.21185 49.7089 5.15556 49.7348 5.10889 49.7696C5.06222 49.8044 5.02593 49.8481 5.00074 49.8993C4.97482 49.9504 4.96222 50.0089 4.96222 50.0741C4.96222 50.177 4.99407 50.2644 5.05704 50.3363C5.12 50.4089 5.20296 50.4704 5.30519 50.5215C5.40815 50.5726 5.52444 50.6222 5.65481 50.6681C5.78519 50.7148 5.91926 50.7652 6.05704 50.8185C6.19481 50.8726 6.32889 50.9341 6.45926 51.0037C6.58963 51.0741 6.70667 51.1622 6.80889 51.2696C6.91111 51.377 6.99407 51.5052 7.05704 51.6548C7.12 51.8044 7.15185 51.9837 7.15185 52.1941C7.15185 52.4459 7.10741 52.6689 7.01926 52.8622C6.93037 53.0563 6.80667 53.2193 6.64815 53.3526C6.48963 53.4852 6.29852 53.5859 6.07407 53.6533C5.85037 53.7207 5.60519 53.7548 5.33926 53.7548C5.10963 53.757 4.90296 53.7326 4.7237 53.6837Z" fill="#008CE2"/>
<path d="M8.5837 49.7119H7.4637V48.8022H10.7741V49.7119H9.66148V53.7015H8.5837V49.7119Z" fill="#008CE2"/>
<path d="M14.5504 53.5756C14.2355 53.4541 13.96 53.2837 13.7244 53.0644C13.4889 52.8452 13.303 52.5815 13.1681 52.2733C13.0326 51.9652 12.9652 51.6252 12.9652 51.2519C12.9652 50.9067 13.0237 50.5815 13.14 50.2755C13.2563 49.9704 13.4244 49.703 13.6437 49.4741C13.863 49.2452 14.1274 49.0644 14.4378 48.9318C14.7481 48.7985 15.0993 48.7326 15.4911 48.7326C15.6778 48.7326 15.8733 48.7489 16.0793 48.7815C16.2844 48.8141 16.4852 48.8667 16.6815 48.9393C16.8778 49.0118 17.0615 49.1059 17.2341 49.223C17.4067 49.34 17.5563 49.48 17.6822 49.643L17.0244 50.343C16.9311 50.2452 16.8281 50.1541 16.7163 50.0704C16.6044 49.9867 16.4852 49.9141 16.3593 49.8533C16.2333 49.7926 16.1037 49.7459 15.9711 49.7133C15.8378 49.6807 15.7037 49.6644 15.5689 49.6644C15.3637 49.6644 15.1711 49.7015 14.9911 49.7763C14.8111 49.8511 14.6548 49.957 14.5222 50.0948C14.3889 50.2326 14.2852 50.3993 14.2104 50.5956C14.1355 50.7918 14.0985 51.0133 14.0985 51.2607C14.0985 51.5081 14.1378 51.7289 14.2178 51.9222C14.297 52.1163 14.4052 52.28 14.543 52.4156C14.6807 52.5511 14.8437 52.6533 15.0326 52.7237C15.2215 52.7941 15.4237 52.8289 15.6378 52.8289C15.7733 52.8289 15.9155 52.8111 16.0644 52.7763C16.2141 52.7415 16.3533 52.6748 16.4844 52.577C16.6148 52.4793 16.7296 52.3422 16.8274 52.1674C16.9252 51.9926 16.9881 51.7652 17.0163 51.4852L17.3659 51.8563H15.3918V50.9467H18.0518C18.0518 51.3341 18.0118 51.6726 17.9326 51.9615C17.8533 52.2511 17.7496 52.4993 17.6215 52.7067C17.4933 52.9141 17.3452 53.0859 17.177 53.2215C17.0089 53.357 16.8326 53.4644 16.6489 53.5437C16.4644 53.623 16.2793 53.6793 16.0926 53.7118C15.9059 53.7444 15.7289 53.7607 15.5607 53.7607C15.2022 53.757 14.8652 53.697 14.5504 53.5756Z" fill="#003759"/>
<path d="M21.0978 48.9C21.317 48.9652 21.5052 49.0607 21.6615 49.1867C21.8178 49.3126 21.9378 49.4689 22.0222 49.6555C22.1059 49.8422 22.1481 50.057 22.1481 50.2992C22.1481 50.5422 22.1059 50.7578 22.0222 50.9467C21.9385 51.1355 21.82 51.2955 21.6689 51.4259C21.517 51.5563 21.3385 51.657 21.1333 51.7267C20.9281 51.797 20.7037 51.8318 20.4615 51.8318H19.8948V53.7007H18.817V48.8015H20.3637C20.6333 48.8015 20.8785 48.8348 21.0978 48.9ZM20.6429 50.877C20.7266 50.8467 20.7978 50.8044 20.8563 50.7511C20.9148 50.6978 20.9585 50.6333 20.9896 50.5585C21.02 50.4837 21.0348 50.4022 21.0348 50.3133C21.0348 50.2296 21.0207 50.1504 20.9926 50.0755C20.9644 50.0007 20.9229 49.937 20.8666 49.883C20.8104 49.8296 20.7415 49.7874 20.66 49.757C20.5785 49.7267 20.4815 49.7118 20.3696 49.7118H19.8933V50.923H20.3481C20.4607 50.9222 20.5592 50.9074 20.6429 50.877ZM20.0896 51.6296L21.0904 51.2659L22.6792 53.5548V53.7015H21.517L20.0896 51.6296Z" fill="#003759"/>
<path d="M24.4993 53.5756C24.1771 53.4541 23.9022 53.283 23.6733 53.0615C23.4445 52.84 23.2696 52.5748 23.1482 52.2674C23.0267 51.9593 22.9659 51.6193 22.9659 51.2452C22.9659 50.8904 23.0267 50.5607 23.1482 50.2548C23.2696 49.9496 23.443 49.683 23.6696 49.457C23.8956 49.2311 24.1704 49.0533 24.4919 48.9252C24.8141 48.797 25.1756 48.7326 25.5771 48.7326C25.9645 48.7326 26.3193 48.7933 26.6408 48.9148C26.963 49.0363 27.2378 49.2074 27.4667 49.4296C27.6956 49.6511 27.8726 49.917 27.9985 50.2274C28.1245 50.5378 28.1874 50.8793 28.1874 51.2526C28.1874 51.6074 28.1252 51.9378 28.0022 52.243C27.8785 52.5489 27.7037 52.8133 27.4771 53.037C27.2504 53.2607 26.9763 53.437 26.6548 53.5652C26.3326 53.6933 25.9733 53.7578 25.5771 53.7578C25.1808 53.757 24.8215 53.697 24.4993 53.5756ZM26.1719 52.7385C26.3541 52.6659 26.5111 52.5615 26.6445 52.4237C26.7771 52.2859 26.8822 52.1185 26.9593 51.92C27.0363 51.7215 27.0748 51.4963 27.0748 51.2444C27.0748 50.997 27.0378 50.7741 26.963 50.5763C26.8882 50.3778 26.7845 50.2104 26.6519 50.0726C26.5185 49.9348 26.3615 49.8289 26.1793 49.7541C25.9971 49.6793 25.7963 49.6422 25.5771 49.6422C25.3622 49.6422 25.163 49.6785 24.9785 49.7504C24.7941 49.823 24.6356 49.9281 24.5022 50.0652C24.3689 50.203 24.2652 50.3711 24.1911 50.5689C24.1163 50.7674 24.0793 50.9926 24.0793 51.2444C24.0793 51.4918 24.1156 51.7148 24.1874 51.9126C24.26 52.1111 24.3622 52.2793 24.4956 52.4163C24.6289 52.5541 24.7874 52.66 24.9719 52.7348C25.1563 52.8096 25.3578 52.8467 25.5771 52.8467C25.7919 52.8474 25.9904 52.8111 26.1719 52.7385Z" fill="#003759"/>
<path d="M30.0185 53.6348C29.7689 53.5437 29.56 53.4133 29.3918 53.243C29.2237 53.0726 29.097 52.863 29.0104 52.6133C28.9237 52.3637 28.8807 52.0822 28.8807 51.7696V48.8022H29.9585V51.6719C29.9585 51.8681 29.9792 52.0356 30.0215 52.1756C30.0637 52.3156 30.1229 52.4311 30.2 52.5222C30.277 52.6133 30.3711 52.68 30.4837 52.7215C30.5955 52.7637 30.7215 52.7844 30.8615 52.7844C31.1459 52.7844 31.3704 52.6956 31.5333 52.5185C31.6963 52.3415 31.7785 52.08 31.7785 51.7348V48.8022H32.8074V51.7282C32.8074 52.0548 32.7629 52.3452 32.6748 52.5993C32.5859 52.8533 32.4592 53.0674 32.2933 53.24C32.1274 53.4126 31.9259 53.5444 31.6881 53.6356C31.4504 53.7267 31.1815 53.7719 30.8829 53.7719C30.5563 53.7711 30.2681 53.7259 30.0185 53.6348Z" fill="#003759"/>
<path d="M36.066 48.903C36.2874 48.9704 36.4763 49.0711 36.6326 49.2037C36.7889 49.337 36.9089 49.5 36.9934 49.6933C37.0771 49.8874 37.1193 50.1096 37.1193 50.3615C37.1193 50.6133 37.0771 50.84 36.9934 51.0407C36.9097 51.2415 36.7867 51.4118 36.626 51.5518C36.4652 51.6918 36.2689 51.8 36.0378 51.877C35.8067 51.9541 35.5467 51.9926 35.2571 51.9926H34.8652V53.7007H33.7874V48.8015H35.3134C35.5934 48.8015 35.8437 48.8355 36.066 48.903ZM35.5756 51.0237C35.6808 50.9889 35.766 50.94 35.8311 50.877C35.8963 50.8141 35.9452 50.7415 35.9778 50.66C36.0104 50.5785 36.0267 50.4881 36.0267 50.3904C36.0267 50.297 36.0111 50.2096 35.9815 50.1281C35.9511 50.0467 35.903 49.9741 35.8378 49.9111C35.7726 49.8481 35.686 49.7993 35.5785 49.7644C35.4711 49.7296 35.3408 49.7118 35.1867 49.7118H34.8645V51.077H35.2008C35.346 51.0763 35.4704 51.0593 35.5756 51.0237Z" fill="#003759"/>
<path d="M41.1222 48.7807H41.9763L43.9363 53.7015H42.8022L41.4022 49.9711H41.64L40.2474 53.7015H39.1904L41.1222 48.7807ZM40.4015 51.8607H42.6622V52.7074H40.4015V51.8607Z" fill="#003759"/>
<path d="M45.7452 53.5756C45.4208 53.4541 45.146 53.283 44.9193 53.0615C44.6926 52.84 44.5193 52.5763 44.3978 52.2704C44.2763 51.9652 44.2156 51.6296 44.2156 51.2659C44.2156 50.9022 44.2786 50.5652 44.4045 50.2548C44.5304 49.9444 44.7074 49.677 44.9363 49.4533C45.1652 49.2296 45.44 49.0533 45.7623 48.9252C46.0845 48.797 46.4437 48.7326 46.84 48.7326C47.1763 48.7326 47.4756 48.777 47.7393 48.8659C48.003 48.9548 48.24 49.0807 48.4497 49.2437L48.0297 49.9993C47.866 49.8874 47.6904 49.8044 47.5015 49.7511C47.3126 49.6978 47.1245 49.6704 46.9378 49.6704C46.7089 49.6704 46.4978 49.7074 46.3045 49.7822C46.1104 49.857 45.943 49.9622 45.8008 50.097C45.6586 50.2326 45.5474 50.397 45.4682 50.5904C45.3889 50.7844 45.3489 50.9978 45.3489 51.2311C45.3489 51.4741 45.3889 51.6933 45.4682 51.8889C45.5474 52.0852 45.6593 52.2519 45.8045 52.3896C45.9489 52.5274 46.1237 52.6326 46.3297 52.7044C46.5349 52.777 46.7615 52.8126 47.0089 52.8126C47.0926 52.8126 47.183 52.8067 47.2786 52.7948C47.3741 52.783 47.4711 52.7637 47.5689 52.7356C47.6667 52.7074 47.7623 52.6689 47.8556 52.62C47.9489 52.5711 48.0378 52.5089 48.1215 52.4348L48.5623 53.1837C48.4734 53.263 48.3711 53.3378 48.2541 53.4074C48.1371 53.4778 48.006 53.5378 47.8586 53.5896C47.7119 53.6407 47.5526 53.6815 47.3823 53.7118C47.2119 53.7422 47.0289 53.757 46.8326 53.757C46.4326 53.757 46.0697 53.697 45.7452 53.5756Z" fill="#003759"/>
<path d="M50.683 48.7807H51.5371L53.4971 53.7015H52.363L50.963 49.9711H51.2008L49.8082 53.7015H48.7511L50.683 48.7807ZM49.9623 51.8607H52.223V52.7074H49.9623V51.8607Z" fill="#003759"/>
<path d="M55.1415 53.7015H54.0637V48.8022H55.1415V53.7015ZM56.2719 52.6933C56.4793 52.6281 56.6541 52.5311 56.797 52.403C56.9393 52.2748 57.0474 52.1126 57.1222 51.9163C57.197 51.72 57.2341 51.4918 57.2341 51.2304C57.2341 50.9689 57.1941 50.743 57.1148 50.5511C57.0356 50.36 56.9237 50.2022 56.7785 50.0785C56.6341 49.9548 56.4607 49.863 56.2607 49.8022C56.06 49.7415 55.8385 49.7111 55.5956 49.7111H54.5319V48.8015H55.7704C56.1904 48.8015 56.5615 48.86 56.883 48.9763C57.2052 49.0933 57.477 49.2563 57.6985 49.4659C57.92 49.6755 58.0867 49.9289 58.1993 50.2252C58.3111 50.5215 58.3674 50.8518 58.3674 51.2155C58.3674 51.64 58.2963 52.0089 58.1541 52.3215C58.0119 52.6341 57.8178 52.8933 57.5733 53.0985C57.3281 53.3037 57.0422 53.4555 56.7156 53.5533C56.3889 53.6511 56.0415 53.7 55.6726 53.7H54.5244L54.5311 52.7904H55.5667C55.8296 52.7911 56.0644 52.7585 56.2719 52.6933Z" fill="#003759"/>
<path d="M59.1311 48.8015H61.9236V49.7111H60.2088V50.6837H61.6155V51.5726H60.2088V52.7904H61.994V53.7H59.1311V48.8015Z" fill="#003759"/>
<path d="M63.1348 48.8015H64.0444L65.6051 52.5459L65.0733 52.6022L66.5785 48.8015H67.4814L68.1674 53.7007H67.1244L66.6481 50.243H66.9348L65.5348 53.7007H65.1081L63.6874 50.2993H63.9599L63.5259 53.7007H62.5185L63.1348 48.8015Z" fill="#003759"/>
<path d="M68.4888 48.9415V48.8015H69.6155L70.8266 50.957L70.4 50.9637L71.5829 48.8007H72.64V48.9407L70.6311 52.5452L70.5192 52.5518L68.4888 48.9415ZM71.114 53.7015H70.0363V51.4407H71.114V53.7015Z" fill="#003759"/>
<path d="M1.98296 55.5674H4.05334V55.9756H2.41408V57.3985H3.9363V57.8067H2.41408V59.6496H1.98222V55.5674H1.98296Z" fill="#808080"/>
<path d="M5.38 56.3578C5.3237 56.3052 5.29556 56.24 5.29556 56.1622C5.29556 56.0844 5.3237 56.0215 5.38 55.9726C5.4363 55.9237 5.5037 55.9 5.58148 55.9C5.65926 55.9 5.72444 55.9244 5.77704 55.9726C5.82963 56.0215 5.85556 56.0844 5.85556 56.1622C5.85556 56.24 5.82963 56.3052 5.77704 56.3578C5.72444 56.4104 5.65926 56.4363 5.58148 56.4363C5.5037 56.437 5.4363 56.4104 5.38 56.3578ZM5.36593 57.0844H5.78593V59.6511H5.36593V57.0844Z" fill="#808080"/>
<path d="M8.33704 57.0518C8.38149 57.0541 8.41926 57.0585 8.45111 57.0667V57.4867C8.40445 57.4793 8.35704 57.4718 8.30815 57.4659C8.25926 57.46 8.21185 57.457 8.16519 57.457C8.04445 57.457 7.94741 57.4778 7.87334 57.5185C7.79926 57.5593 7.74223 57.617 7.70148 57.6904C7.66074 57.7644 7.63408 57.8518 7.62297 57.9526C7.61111 58.0541 7.60519 58.1644 7.60519 58.2852V59.6504H7.18519V57.0837H7.58149V57.8481L7.49408 57.6733C7.50593 57.6193 7.52593 57.5556 7.55556 57.4837C7.58519 57.4118 7.62667 57.3437 7.68074 57.2793C7.73482 57.2148 7.80593 57.1607 7.89334 57.1163C7.98074 57.0718 8.09037 57.0489 8.22297 57.0489C8.25482 57.0489 8.2926 57.0504 8.33704 57.0518Z" fill="#808080"/>
<path d="M10.0696 59.68C9.97407 59.6607 9.8837 59.6326 9.79851 59.5956C9.71259 59.5585 9.63259 59.5141 9.55629 59.4615C9.48073 59.4089 9.40962 59.3496 9.3437 59.2837L9.57703 58.9807C9.67777 59.0933 9.79481 59.18 9.92666 59.24C10.0585 59.3 10.2067 59.3304 10.3696 59.3304C10.4548 59.3304 10.5348 59.3215 10.6089 59.3044C10.683 59.2867 10.7459 59.2607 10.7985 59.2259C10.8511 59.1911 10.8918 59.1489 10.9207 59.1007C10.9496 59.0518 10.9644 58.997 10.9644 58.9348C10.9644 58.8341 10.9281 58.7548 10.8563 58.6985C10.7844 58.6422 10.6941 58.5956 10.5852 58.5585C10.4763 58.5215 10.3578 58.4874 10.2296 58.4563C10.1015 58.4252 9.98296 58.3837 9.87407 58.3311C9.76518 58.2785 9.67481 58.2074 9.60296 58.1185C9.5311 58.0289 9.49481 57.9104 9.49481 57.763C9.49481 57.6385 9.51999 57.5304 9.57036 57.4393C9.62073 57.3481 9.68962 57.2711 9.77703 57.2089C9.86444 57.1467 9.9674 57.1007 10.0859 57.0718C10.2044 57.043 10.3296 57.0281 10.4622 57.0281C10.563 57.0281 10.6563 57.037 10.7422 57.0541C10.8274 57.0718 10.9059 57.0948 10.9756 57.1237C11.0452 57.1526 11.1074 57.1859 11.1622 57.223C11.2163 57.26 11.2674 57.2978 11.3141 57.337L11.0689 57.6518C10.9948 57.5815 10.9096 57.5237 10.8126 57.477C10.7155 57.4304 10.597 57.4067 10.457 57.4067C10.2859 57.4067 10.1526 57.437 10.0578 57.497C9.96222 57.557 9.91481 57.6363 9.91481 57.7333C9.91481 57.8304 9.95036 57.9044 10.023 57.9548C10.0948 58.0052 10.1852 58.0459 10.2941 58.077C10.403 58.1081 10.5215 58.1385 10.6496 58.1674C10.7778 58.1963 10.8963 58.2378 11.0052 58.2896C11.1141 58.3422 11.2044 58.4148 11.2763 58.5081C11.3481 58.6015 11.3844 58.7296 11.3844 58.8933C11.3844 59.0296 11.357 59.1489 11.303 59.2519C11.2481 59.3548 11.1756 59.4407 11.0844 59.5081C10.9933 59.5763 10.8859 59.6267 10.7637 59.66C10.6415 59.6933 10.5118 59.7096 10.3756 59.7096C10.2667 59.7089 10.1644 59.6993 10.0696 59.68Z" fill="#808080"/>
<path d="M12.283 57.0844H13.7993V57.4637H12.283V57.0844ZM13.1696 59.6333C13.0682 59.6022 12.9852 59.5526 12.9185 59.4844C12.8526 59.4163 12.803 59.3281 12.7696 59.2193C12.7363 59.1104 12.72 58.9785 12.72 58.823V56.1518H13.14V58.7652C13.14 58.8393 13.1459 58.9089 13.1578 58.9748C13.1696 59.0407 13.1911 59.0985 13.2222 59.1467C13.2533 59.1956 13.2978 59.2333 13.3563 59.2607C13.4148 59.2881 13.4926 59.3015 13.5896 59.3015C13.6207 59.3015 13.657 59.3007 13.6978 59.2985C13.7385 59.2963 13.78 59.2919 13.823 59.2837V59.657C13.7682 59.6644 13.7163 59.6704 13.6652 59.6748C13.6148 59.6785 13.5682 59.6807 13.5252 59.6807C13.3889 59.68 13.2704 59.6644 13.1696 59.6333Z" fill="#808080"/>
<path d="M17.7333 59.6622C17.5993 59.6311 17.4756 59.5896 17.363 59.537C17.2504 59.4844 17.1489 59.423 17.06 59.3533C16.9704 59.283 16.8889 59.2074 16.8148 59.1259L17.1237 58.7763C17.1896 58.8541 17.26 58.9244 17.3333 58.9859C17.4074 59.0481 17.4867 59.1015 17.5726 59.1467C17.6578 59.1911 17.7504 59.2267 17.8496 59.2519C17.9489 59.277 18.057 59.2896 18.1733 59.2896C18.317 59.2896 18.4422 59.2711 18.5496 59.2341C18.6563 59.197 18.7452 59.1459 18.8148 59.0793C18.8852 59.0133 18.937 58.9356 18.9726 58.8459C19.0074 58.7563 19.0252 58.657 19.0252 58.5481C19.0252 58.4044 18.997 58.2837 18.9407 58.1867C18.8845 58.0896 18.8082 58.0067 18.7133 57.9385C18.6178 57.8704 18.5111 57.8111 18.3926 57.7607C18.2741 57.7104 18.1511 57.6607 18.0252 57.6119C17.8985 57.563 17.7763 57.5111 17.6578 57.4541C17.5393 57.3978 17.4319 57.3296 17.337 57.2496C17.2415 57.1696 17.1659 57.0726 17.1096 56.9578C17.0533 56.843 17.0252 56.7037 17.0252 56.5407C17.0252 56.3815 17.0533 56.2385 17.1096 56.1119C17.1659 55.9852 17.2467 55.8778 17.3519 55.7881C17.457 55.6985 17.5844 55.6296 17.7341 55.5815C17.8837 55.5326 18.0496 55.5089 18.2326 55.5089C18.3607 55.5089 18.4807 55.5215 18.5911 55.5467C18.7022 55.5719 18.8037 55.6052 18.897 55.6459C18.9904 55.6867 19.0748 55.7356 19.1511 55.7919C19.2267 55.8481 19.2963 55.9096 19.3585 55.9756L19.0904 56.2904C18.9852 56.1896 18.863 56.1037 18.723 56.0341C18.583 55.9637 18.4156 55.9289 18.2215 55.9289C18.1007 55.9289 17.9941 55.9422 17.9007 55.9696C17.8074 55.997 17.7289 56.037 17.6644 56.0889C17.6 56.1415 17.5519 56.203 17.5185 56.2726C17.4852 56.3422 17.4689 56.4222 17.4689 56.5118C17.4689 56.6289 17.497 56.7274 17.5533 56.8096C17.6096 56.8911 17.6852 56.963 17.7807 57.0252C17.8763 57.0874 17.983 57.1437 18.1015 57.1941C18.22 57.2444 18.3422 57.2963 18.4689 57.3489C18.5956 57.4015 18.7178 57.46 18.8363 57.5237C18.9548 57.5881 19.0615 57.6637 19.157 57.7511C19.2526 57.8385 19.3282 57.9437 19.3844 58.0659C19.4407 58.1881 19.4689 58.3356 19.4689 58.5059C19.4689 58.7044 19.4348 58.8793 19.3667 59.0311C19.2985 59.183 19.2059 59.3081 19.0896 59.4074C18.9726 59.5067 18.8356 59.5815 18.6785 59.6319C18.5215 59.6822 18.3526 59.7074 18.1741 59.7074C18.0148 59.7089 17.8674 59.6933 17.7333 59.6622Z" fill="#808080"/>
<path d="M20.3785 57.0844H21.8948V57.4637H20.3785V57.0844ZM21.2652 59.6333C21.1637 59.6022 21.0807 59.5526 21.0141 59.4844C20.9481 59.4163 20.8985 59.3281 20.8652 59.2193C20.8319 59.1104 20.8156 58.9785 20.8156 58.823V56.1518H21.2356V58.7652C21.2356 58.8393 21.2415 58.9089 21.2533 58.9748C21.2652 59.0407 21.2867 59.0985 21.3178 59.1467C21.3489 59.1956 21.3933 59.2333 21.4519 59.2607C21.5104 59.2881 21.5881 59.3015 21.6852 59.3015C21.7163 59.3015 21.7526 59.3007 21.7933 59.2985C21.8341 59.2963 21.8756 59.2919 21.9185 59.2837V59.657C21.8637 59.6644 21.8119 59.6704 21.7607 59.6748C21.7104 59.6785 21.6637 59.6807 21.6207 59.6807C21.4852 59.68 21.3667 59.6644 21.2652 59.6333Z" fill="#808080"/>
<path d="M24.2719 57.0518C24.3163 57.0541 24.3541 57.0585 24.3859 57.0667V57.4867C24.3393 57.4793 24.2919 57.4718 24.243 57.4659C24.1941 57.46 24.1467 57.457 24.1 57.457C23.9793 57.457 23.8822 57.4778 23.8082 57.5185C23.7341 57.5593 23.6771 57.617 23.6363 57.6904C23.5956 57.7644 23.5689 57.8518 23.5578 57.9526C23.5459 58.0541 23.54 58.1644 23.54 58.2852V59.6504H23.12V57.0837H23.5163V57.8481L23.4289 57.6733C23.4408 57.6193 23.4608 57.5556 23.4904 57.4837C23.52 57.4118 23.5615 57.3437 23.6156 57.2793C23.6696 57.2148 23.7408 57.1607 23.8282 57.1163C23.9156 57.0718 24.0252 57.0489 24.1578 57.0489C24.1896 57.0489 24.2274 57.0504 24.2719 57.0518Z" fill="#808080"/>
<path d="M26.1296 59.6067C25.9778 59.5467 25.8459 59.4593 25.7333 59.3444C25.6208 59.2296 25.5304 59.0896 25.4622 58.9244C25.3941 58.7593 25.36 58.5733 25.36 58.3674C25.36 58.1615 25.3919 57.9763 25.4563 57.8133C25.5208 57.6504 25.6089 57.5111 25.7215 57.3963C25.8341 57.2815 25.9667 57.1933 26.1178 57.1311C26.2696 57.0689 26.4311 57.0378 26.6022 57.0378C26.7422 57.0378 26.8689 57.0555 26.9815 57.0904C27.0941 57.1252 27.1911 57.1718 27.2733 57.2304C27.3556 57.2889 27.4208 57.3541 27.4719 57.4259C27.5222 57.4978 27.5533 57.5689 27.5652 57.6385V58.3267H27.5126C27.5126 58.2096 27.4941 58.097 27.4571 57.9881C27.42 57.8793 27.3659 57.7837 27.2933 57.7022C27.2215 57.6207 27.1319 57.5548 27.0252 57.5037C26.9185 57.4533 26.7948 57.4281 26.6548 57.4281C26.5341 57.4281 26.4215 57.4489 26.3163 57.4896C26.2111 57.5304 26.12 57.5911 26.0422 57.6704C25.9645 57.7504 25.9045 57.8481 25.8615 57.9652C25.8185 58.0815 25.7971 58.2141 25.7971 58.3615C25.7971 58.5015 25.8178 58.6296 25.8585 58.7467C25.8993 58.8637 25.9571 58.9637 26.0304 59.0474C26.1045 59.1311 26.1941 59.1955 26.2985 59.24C26.4037 59.2844 26.5185 59.3074 26.643 59.3074C26.783 59.3074 26.9074 59.2815 27.0163 59.2289C27.1252 59.1763 27.2156 59.1067 27.2874 59.0193C27.3593 58.9318 27.4148 58.8326 27.4533 58.7215C27.4919 58.6104 27.5119 58.4993 27.5119 58.3859H27.5934V59.0044C27.5741 59.1015 27.5348 59.1918 27.4771 59.2755C27.4185 59.3593 27.3467 59.4318 27.2615 59.4941C27.1756 59.5563 27.0771 59.6059 26.9637 59.643C26.8511 59.68 26.7304 59.6985 26.6022 59.6985C26.4385 59.697 26.2815 59.6674 26.1296 59.6067ZM27.5356 59.003L27.5126 58.9155V57.8481L27.5356 57.8074V57.0844H27.9319V57.8074V57.8481V59.6504H27.5356V59.003Z" fill="#808080"/>
<path d="M29.0867 57.0844H30.603V57.4637H29.0867V57.0844ZM29.9734 59.6333C29.8719 59.6022 29.7889 59.5526 29.7222 59.4844C29.6563 59.4163 29.6067 59.3281 29.5734 59.2193C29.54 59.1104 29.5237 58.9785 29.5237 58.823V56.1518H29.9437V58.7652C29.9437 58.8393 29.9496 58.9089 29.9615 58.9748C29.9734 59.0407 29.9948 59.0985 30.0259 59.1467C30.0571 59.1956 30.1015 59.2333 30.16 59.2607C30.2185 59.2881 30.2963 59.3015 30.3934 59.3015C30.4245 59.3015 30.4608 59.3007 30.5015 59.2985C30.5422 59.2963 30.5837 59.2919 30.6267 59.2837V59.657C30.5719 59.6644 30.52 59.6704 30.4689 59.6748C30.4185 59.6785 30.3719 59.6807 30.3289 59.6807C30.1934 59.68 30.0748 59.6644 29.9734 59.6333Z" fill="#808080"/>
<path d="M32.4378 59.6037C32.2763 59.5415 32.1363 59.4533 32.0178 59.3385C31.8993 59.2237 31.8059 59.0852 31.7378 58.9215C31.6696 58.7578 31.6356 58.5733 31.6356 58.3674C31.6356 58.1533 31.6711 57.9637 31.7437 57.7985C31.8156 57.6333 31.9126 57.4941 32.0356 57.3815C32.1578 57.2689 32.2978 57.183 32.4556 57.1252C32.6133 57.0667 32.777 57.0378 32.9481 57.0378C33.1467 57.0378 33.3222 57.0741 33.4763 57.1459C33.6296 57.2178 33.7593 57.3141 33.8644 57.4348C33.9696 57.5555 34.0489 57.6904 34.1037 57.84C34.1578 57.9896 34.1852 58.1444 34.1852 58.3037V58.4496H31.9163V58.0941H34.0044L33.7652 58.397V58.2689C33.7652 58.1481 33.7437 58.0363 33.7007 57.9333C33.6578 57.8304 33.5978 57.7407 33.52 57.6652C33.4422 57.5896 33.3518 57.5289 33.2489 57.4844C33.1459 57.44 33.0318 57.417 32.9074 57.417C32.7867 57.417 32.6741 57.4393 32.5689 57.4844C32.4637 57.5296 32.3733 57.5926 32.2978 57.6741C32.2222 57.7555 32.163 57.8541 32.12 57.9689C32.077 58.0837 32.0556 58.2126 32.0556 58.357C32.0556 58.5052 32.0785 58.6378 32.1252 58.7563C32.1718 58.8748 32.237 58.9763 32.3207 59.0593C32.4044 59.143 32.5037 59.2074 32.6185 59.2518C32.7333 59.2963 32.8563 59.3193 32.9889 59.3193C33.1518 59.3193 33.3044 59.2874 33.4467 59.223C33.5889 59.1585 33.7022 59.0704 33.7881 58.9578L34.0622 59.2089C33.9378 59.3763 33.777 59.4993 33.5807 59.5793C33.3844 59.6593 33.1793 59.6985 32.9652 59.6985C32.7748 59.697 32.5993 59.6659 32.4378 59.6037Z" fill="#808080"/>
<path d="M35.9696 59.6067C35.8178 59.5467 35.6859 59.4593 35.5733 59.3444C35.4607 59.2296 35.3704 59.0896 35.3022 58.9244C35.2341 58.7593 35.2 58.5733 35.2 58.3674C35.2 58.1615 35.2318 57.9763 35.2963 57.8133C35.3607 57.6504 35.4489 57.5111 35.5615 57.3963C35.6741 57.2815 35.8067 57.1933 35.9578 57.1311C36.1096 57.0689 36.2711 57.0378 36.4422 57.0378C36.5822 57.0378 36.7081 57.0555 36.8215 57.0904C36.9341 57.1252 37.0318 57.1718 37.1133 57.2304C37.1948 57.2889 37.2607 57.3541 37.3118 57.4259C37.3622 57.4978 37.3933 57.5689 37.4052 57.6385V58.3267H37.3526C37.3526 58.2096 37.3341 58.097 37.297 57.9881C37.26 57.8793 37.2059 57.7837 37.1333 57.7022C37.0615 57.6207 36.9718 57.5548 36.8652 57.5037C36.7578 57.4533 36.6348 57.4281 36.4948 57.4281C36.3741 57.4281 36.2615 57.4489 36.1563 57.4896C36.0511 57.5304 35.96 57.5911 35.8822 57.6704C35.8044 57.7504 35.7444 57.8481 35.7015 57.9652C35.6585 58.0815 35.637 58.2141 35.637 58.3615C35.637 58.5015 35.6578 58.6296 35.6985 58.7467C35.7393 58.8637 35.797 58.9637 35.8704 59.0474C35.9444 59.1311 36.0341 59.1955 36.1385 59.24C36.2437 59.2844 36.3585 59.3074 36.483 59.3074C36.623 59.3074 36.7474 59.2815 36.8563 59.2289C36.9652 59.1763 37.0555 59.1067 37.1274 59.0193C37.1993 58.9318 37.2548 58.8326 37.2933 58.7215C37.3318 58.6104 37.3518 58.4993 37.3518 58.3859H37.4333V59.0044C37.4141 59.1015 37.3748 59.1918 37.317 59.2755C37.2585 59.3593 37.1867 59.4318 37.1015 59.4941C37.0163 59.5563 36.917 59.6059 36.8037 59.643C36.6904 59.68 36.5704 59.6985 36.4422 59.6985C36.2785 59.697 36.1207 59.6674 35.9696 59.6067ZM36.1148 61.0415C36.0133 61.02 35.9185 60.9889 35.8289 60.9481C35.7393 60.9074 35.6548 60.857 35.5748 60.7963C35.4948 60.7363 35.4222 60.6652 35.3563 60.5837L35.6244 60.2748C35.6711 60.3333 35.723 60.3867 35.7793 60.4355C35.8356 60.4844 35.8978 60.5259 35.9659 60.5607C36.0341 60.5956 36.1081 60.6237 36.1874 60.6452C36.2674 60.6667 36.3556 60.677 36.4526 60.677C36.5926 60.677 36.7178 60.6548 36.8289 60.6096C36.94 60.5652 37.0341 60.4985 37.1118 60.4111C37.1896 60.3237 37.2489 60.2155 37.2896 60.0874C37.3304 59.9593 37.3511 59.8096 37.3511 59.6385V57.8481L37.3741 57.8074V57.0844H37.7711V59.7504C37.7711 59.9718 37.7341 60.1667 37.66 60.3333C37.5859 60.5007 37.4881 60.6385 37.3652 60.7474C37.243 60.8563 37.1007 60.9378 36.9393 60.9926C36.7778 61.0467 36.6074 61.0741 36.4289 61.0741C36.3215 61.0741 36.2163 61.063 36.1148 61.0415Z" fill="#808080"/>
<path d="M39.1859 56.3578C39.1296 56.3052 39.1015 56.24 39.1015 56.1622C39.1015 56.0844 39.1296 56.0215 39.1859 55.9726C39.2422 55.9237 39.3096 55.9 39.3874 55.9C39.4652 55.9 39.5303 55.9244 39.5829 55.9726C39.6355 56.0215 39.6615 56.0844 39.6615 56.1622C39.6615 56.24 39.6355 56.3052 39.5829 56.3578C39.5303 56.4104 39.4652 56.4363 39.3874 56.4363C39.3096 56.437 39.2422 56.4104 39.1859 56.3578ZM39.1718 57.0844H39.5918V59.6511H39.1718V57.0844Z" fill="#808080"/>
<path d="M41.577 59.5956C41.4118 59.5274 41.2718 59.4333 41.157 59.3126C41.0422 59.1918 40.9541 59.0504 40.8918 58.8867C40.8296 58.7237 40.7985 58.5467 40.7985 58.3556C40.7985 58.1496 40.8333 57.9644 40.9037 57.8015C40.9733 57.6378 41.0681 57.5 41.1866 57.3874C41.3052 57.2748 41.4452 57.1881 41.6066 57.1281C41.7681 57.0681 41.9422 57.0378 42.1289 57.0378C42.2259 57.0378 42.3215 57.0467 42.4148 57.0637C42.5081 57.0807 42.5963 57.1052 42.68 57.1363C42.7637 57.1674 42.8422 57.2074 42.9163 57.2556C42.9903 57.3044 43.0563 57.3578 43.1148 57.4163L42.8696 57.743C42.7837 57.6415 42.677 57.5622 42.5489 57.5037C42.4207 57.4452 42.2822 57.4163 42.1348 57.4163C42.0103 57.4163 41.8926 57.4378 41.7822 57.4807C41.6711 57.5237 41.5741 57.5852 41.4903 57.6644C41.4066 57.7444 41.3407 57.8415 41.2918 57.9563C41.2429 58.0711 41.2192 58.2022 41.2192 58.3496C41.2192 58.4933 41.2422 58.6244 41.2896 58.7437C41.3363 58.8622 41.4022 58.9644 41.4881 59.0496C41.5733 59.1356 41.6741 59.2015 41.7881 59.2481C41.9029 59.2948 42.0281 59.3185 42.1644 59.3185C42.3237 59.3185 42.4659 59.2881 42.5903 59.2281C42.7148 59.1681 42.8155 59.0889 42.8933 58.9918L43.1555 59.2541C43.0466 59.3822 42.9066 59.4881 42.7355 59.5718C42.5644 59.6555 42.3622 59.697 42.1289 59.697C41.9266 59.697 41.7429 59.663 41.577 59.5956Z" fill="#808080"/>
<path d="M47.0867 55.9763H45.9778V55.5681H48.626V55.9763H47.5178V59.6511H47.086V55.9763H47.0867Z" fill="#808080"/>
<path d="M50.8282 57.0518C50.8726 57.0541 50.9104 57.0585 50.9422 57.0667V57.4867C50.8956 57.4793 50.8482 57.4718 50.7993 57.4659C50.7504 57.46 50.703 57.457 50.6563 57.457C50.5356 57.457 50.4385 57.4778 50.3644 57.5185C50.2904 57.5593 50.2333 57.617 50.1926 57.6904C50.1519 57.7644 50.1252 57.8518 50.1141 57.9526C50.1022 58.0541 50.0963 58.1644 50.0963 58.2852V59.6504H49.6763V57.0837H50.0726V57.8481L49.9852 57.6733C49.997 57.6193 50.017 57.5556 50.0467 57.4837C50.0756 57.4118 50.1178 57.3437 50.1719 57.2793C50.2259 57.2148 50.297 57.1607 50.3844 57.1163C50.4719 57.0718 50.5815 57.0489 50.7141 57.0489C50.7452 57.0489 50.783 57.0504 50.8282 57.0518Z" fill="#808080"/>
<path d="M52.6859 59.6067C52.5341 59.5467 52.4022 59.4593 52.2896 59.3444C52.177 59.2296 52.0867 59.0896 52.0185 58.9244C51.9504 58.7593 51.9163 58.5733 51.9163 58.3674C51.9163 58.1615 51.9481 57.9763 52.0126 57.8133C52.077 57.6504 52.1652 57.5111 52.2778 57.3963C52.3904 57.2815 52.523 57.1933 52.6741 57.1311C52.8259 57.0689 52.9867 57.0378 53.1585 57.0378C53.2985 57.0378 53.4244 57.0555 53.5378 57.0904C53.6504 57.1252 53.7474 57.1718 53.8296 57.2304C53.9111 57.2889 53.977 57.3541 54.0281 57.4259C54.0785 57.4978 54.1096 57.5689 54.1215 57.6385V58.3267H54.0689C54.0689 58.2096 54.0504 58.097 54.0133 57.9881C53.9763 57.8793 53.9222 57.7837 53.8504 57.7022C53.7785 57.6207 53.6889 57.5548 53.5822 57.5037C53.4755 57.4533 53.3518 57.4281 53.2118 57.4281C53.0911 57.4281 52.9785 57.4489 52.8733 57.4896C52.7681 57.5304 52.677 57.5911 52.5993 57.6704C52.5215 57.7504 52.4615 57.8481 52.4185 57.9652C52.3756 58.0815 52.3541 58.2141 52.3541 58.3615C52.3541 58.5015 52.3748 58.6296 52.4155 58.7467C52.4563 58.8637 52.5141 58.9637 52.5874 59.0474C52.6615 59.1311 52.7511 59.1955 52.8555 59.24C52.96 59.2844 53.0748 59.3074 53.2 59.3074C53.34 59.3074 53.4644 59.2815 53.5733 59.2289C53.6822 59.1763 53.7726 59.1067 53.8444 59.0193C53.9163 58.9318 53.9718 58.8326 54.0104 58.7215C54.0489 58.6104 54.0689 58.4993 54.0689 58.3859H54.1504V59.0044C54.1311 59.1015 54.0918 59.1918 54.0341 59.2755C53.9756 59.3593 53.9037 59.4318 53.8185 59.4941C53.7326 59.5563 53.6341 59.6059 53.5207 59.643C53.4081 59.68 53.2874 59.6985 53.1593 59.6985C52.9948 59.697 52.837 59.6674 52.6859 59.6067ZM54.0911 59.003L54.0674 58.9155V57.8481L54.0911 57.8074V57.0844H54.4874V57.8074V57.8481V59.6504H54.0911V59.003Z" fill="#808080"/>
<path d="M55.9022 56.3578C55.8459 56.3052 55.8178 56.24 55.8178 56.1622C55.8178 56.0844 55.8459 56.0215 55.9022 55.9726C55.9585 55.9237 56.0259 55.9 56.1037 55.9C56.1815 55.9 56.2466 55.9244 56.2992 55.9726C56.3518 56.0215 56.3778 56.0844 56.3778 56.1622C56.3778 56.24 56.3518 56.3052 56.2992 56.3578C56.2466 56.4104 56.1815 56.4363 56.1037 56.4363C56.0259 56.437 55.9585 56.4104 55.9022 56.3578ZM55.8874 57.0844H56.3074V59.6511H55.8874V57.0844Z" fill="#808080"/>
<path d="M57.7074 59.003V58.9156V57.8481V57.8074V57.0844H58.1037V57.8074L58.1274 57.8481V59.6504H57.7074V59.003ZM59.4489 57.8393C59.4155 57.7519 59.3703 57.68 59.3118 57.6237C59.2533 57.5674 59.1852 57.5252 59.1074 57.4985C59.0296 57.4711 58.9481 57.4578 58.8622 57.4578C58.7496 57.4578 58.6474 57.48 58.5563 57.5252C58.4652 57.5696 58.3874 57.6311 58.3229 57.7089C58.2585 57.7867 58.2103 57.8793 58.177 57.9859C58.1437 58.0926 58.1274 58.2089 58.1274 58.3326H58.0103V57.7556C58.0222 57.6659 58.054 57.5793 58.1066 57.4963C58.1592 57.4126 58.2274 57.3378 58.3111 57.2719C58.3948 57.2059 58.4918 57.1526 58.6029 57.1111C58.7141 57.0704 58.8333 57.0496 58.9615 57.0496C59.0978 57.0496 59.2237 57.0733 59.3407 57.12C59.4578 57.1667 59.5585 57.2341 59.6437 57.3215C59.7289 57.4089 59.7963 57.5148 59.8452 57.6393C59.894 57.7637 59.9178 57.9059 59.9178 58.0652V58.1178V59.6518H59.4978V58.1585C59.4978 58.0333 59.4815 57.9267 59.4489 57.8393Z" fill="#808080"/>
<path d="M61.28 56.3578C61.2237 56.3052 61.1955 56.24 61.1955 56.1622C61.1955 56.0844 61.2237 56.0215 61.28 55.9726C61.3363 55.9237 61.4037 55.9 61.4815 55.9C61.5592 55.9 61.6244 55.9244 61.677 55.9726C61.7296 56.0215 61.7555 56.0844 61.7555 56.1622C61.7555 56.24 61.7296 56.3052 61.677 56.3578C61.6244 56.4104 61.5592 56.4363 61.4815 56.4363C61.4037 56.437 61.3363 56.4104 61.28 56.3578ZM61.2652 57.0844H61.6852V59.6511H61.2652V57.0844Z" fill="#808080"/>
<path d="M63.0852 59.003V58.9156V57.8481V57.8074V57.0844H63.4815V57.8074L63.5052 57.8481V59.6504H63.0852V59.003ZM64.8259 57.8393C64.7926 57.7519 64.7474 57.68 64.6889 57.6237C64.6304 57.5674 64.5622 57.5252 64.4844 57.4985C64.4067 57.4711 64.3252 57.4578 64.2392 57.4578C64.1267 57.4578 64.0244 57.48 63.9333 57.5252C63.8422 57.5696 63.7644 57.6311 63.7 57.7089C63.6355 57.7867 63.5874 57.8793 63.5541 57.9859C63.5207 58.0926 63.5044 58.2089 63.5044 58.3326H63.3874V57.7556C63.3992 57.6659 63.4311 57.5793 63.4837 57.4963C63.5363 57.4126 63.6044 57.3378 63.6881 57.2719C63.7718 57.2059 63.8689 57.1526 63.98 57.1111C64.0911 57.0704 64.2104 57.0496 64.3385 57.0496C64.4748 57.0496 64.6007 57.0733 64.7178 57.12C64.8348 57.1667 64.9355 57.2341 65.0207 57.3215C65.1059 57.4089 65.1733 57.5148 65.2222 57.6393C65.2711 57.7637 65.2948 57.9059 65.2948 58.0652V58.1178V59.6518H64.8748V58.1585C64.8755 58.0333 64.8592 57.9267 64.8259 57.8393Z" fill="#808080"/>
<path d="M67.2208 59.6067C67.0689 59.5467 66.9371 59.4593 66.8245 59.3444C66.7119 59.2296 66.6215 59.0896 66.5534 58.9244C66.4852 58.7593 66.4511 58.5733 66.4511 58.3674C66.4511 58.1615 66.483 57.9763 66.5474 57.8133C66.6119 57.6504 66.7 57.5111 66.8126 57.3963C66.9252 57.2815 67.0578 57.1933 67.2089 57.1311C67.3608 57.0689 67.5215 57.0378 67.6934 57.0378C67.8334 57.0378 67.9593 57.0555 68.0726 57.0904C68.1852 57.1252 68.2822 57.1718 68.3645 57.2304C68.4459 57.2889 68.5119 57.3541 68.563 57.4259C68.6134 57.4978 68.6445 57.5689 68.6563 57.6385V58.3267H68.6037C68.6037 58.2096 68.5852 58.097 68.5482 57.9881C68.5111 57.8793 68.4571 57.7837 68.3852 57.7022C68.3134 57.6207 68.2237 57.5548 68.1171 57.5037C68.0104 57.4533 67.8867 57.4281 67.7467 57.4281C67.6259 57.4281 67.5134 57.4489 67.4082 57.4896C67.303 57.5304 67.2119 57.5911 67.1341 57.6704C67.0563 57.7504 66.9963 57.8481 66.9534 57.9652C66.9104 58.0815 66.8889 58.2141 66.8889 58.3615C66.8889 58.5015 66.9097 58.6296 66.9504 58.7467C66.9911 58.8637 67.0489 58.9637 67.1222 59.0474C67.1963 59.1311 67.2859 59.1955 67.3904 59.24C67.4948 59.2844 67.6096 59.3074 67.7348 59.3074C67.8748 59.3074 67.9993 59.2815 68.1082 59.2289C68.2171 59.1763 68.3074 59.1067 68.3793 59.0193C68.4511 58.9318 68.5067 58.8326 68.5452 58.7215C68.5837 58.6104 68.6037 58.4993 68.6037 58.3859H68.6852V59.0044C68.6659 59.1015 68.6267 59.1918 68.5689 59.2755C68.5104 59.3593 68.4385 59.4318 68.3534 59.4941C68.2674 59.5563 68.1689 59.6059 68.0556 59.643C67.943 59.68 67.8222 59.6985 67.6941 59.6985C67.5296 59.697 67.3719 59.6674 67.2208 59.6067ZM67.3659 61.0415C67.2645 61.02 67.1697 60.9889 67.08 60.9481C66.9904 60.9074 66.9059 60.857 66.8259 60.7963C66.7459 60.7363 66.6734 60.6652 66.6074 60.5837L66.8756 60.2748C66.9222 60.3333 66.9734 60.3867 67.0304 60.4355C67.0867 60.4844 67.1489 60.5259 67.2171 60.5607C67.2852 60.5956 67.3593 60.6237 67.4385 60.6452C67.5185 60.6667 67.6067 60.677 67.7037 60.677C67.8437 60.677 67.9689 60.6548 68.08 60.6096C68.1911 60.5652 68.2852 60.4985 68.363 60.4111C68.4408 60.3237 68.5 60.2155 68.5408 60.0874C68.5815 59.9593 68.6022 59.8096 68.6022 59.6385V57.8481L68.6259 57.8074V57.0844H69.0222V59.7504C69.0222 59.9718 68.9852 60.1667 68.9111 60.3333C68.8371 60.5007 68.7393 60.6385 68.6163 60.7474C68.4941 60.8563 68.3519 60.9378 68.1904 60.9926C68.0289 61.0467 67.8585 61.0741 67.68 61.0741C67.5726 61.0741 67.4674 61.063 67.3659 61.0415Z" fill="#808080"/>
<path d="M70.8748 59.68C70.7792 59.6607 70.6888 59.6326 70.6037 59.5956C70.5177 59.5585 70.4377 59.5141 70.3614 59.4615C70.2859 59.4089 70.2148 59.3496 70.1488 59.2837L70.3822 58.9807C70.4829 59.0933 70.6 59.18 70.7318 59.24C70.8637 59.3 71.0118 59.3304 71.1748 59.3304C71.26 59.3304 71.34 59.3215 71.414 59.3044C71.4881 59.2867 71.5511 59.2607 71.6037 59.2259C71.6562 59.1911 71.697 59.1489 71.7259 59.1007C71.7548 59.0518 71.7696 58.997 71.7696 58.9348C71.7696 58.8341 71.7333 58.7548 71.6614 58.6985C71.5896 58.6422 71.4992 58.5956 71.3903 58.5585C71.2814 58.5215 71.1629 58.4874 71.0348 58.4563C70.9066 58.4252 70.7881 58.3837 70.6792 58.3311C70.5703 58.2785 70.48 58.2074 70.4081 58.1185C70.3362 58.0289 70.3 57.9104 70.3 57.763C70.3 57.6385 70.3251 57.5304 70.3755 57.4393C70.4259 57.3481 70.4948 57.2711 70.5829 57.2089C70.6703 57.1467 70.7733 57.1007 70.8918 57.0718C71.0103 57.043 71.1355 57.0281 71.2681 57.0281C71.3688 57.0281 71.4622 57.037 71.5481 57.0541C71.6333 57.0718 71.7118 57.0948 71.7814 57.1237C71.8518 57.1526 71.9133 57.1859 71.9681 57.223C72.0222 57.26 72.0733 57.2978 72.1199 57.337L71.8748 57.6518C71.8007 57.5815 71.7155 57.5237 71.6185 57.477C71.5214 57.4304 71.4029 57.4067 71.2629 57.4067C71.0918 57.4067 70.9585 57.437 70.8637 57.497C70.7681 57.557 70.7207 57.6363 70.7207 57.7333C70.7207 57.8304 70.7562 57.9044 70.8288 57.9548C70.9007 58.0052 70.9911 58.0459 71.0999 58.077C71.2088 58.1081 71.3274 58.1385 71.4555 58.1674C71.5837 58.1963 71.7022 58.2378 71.8111 58.2896C71.92 58.3422 72.0103 58.4148 72.0822 58.5081C72.154 58.6015 72.1903 58.7296 72.1903 58.8933C72.1903 59.0296 72.1629 59.1489 72.1088 59.2519C72.054 59.3548 71.9814 59.4407 71.8903 59.5081C71.7992 59.5763 71.6918 59.6267 71.5696 59.66C71.4474 59.6933 71.3177 59.7096 71.1814 59.7096C71.0718 59.7089 70.9696 59.6993 70.8748 59.68Z" fill="#808080"/>
</svg>
