<svg width="46" height="46" viewBox="0 0 46 46" fill="none" xmlns="http://www.w3.org/2000/svg">
<path fill-rule="evenodd" clip-rule="evenodd" d="M11.5 5.75C7.26586 5.75 3.83337 9.18248 3.83337 13.4167V32.5833C3.83337 36.8175 7.26586 40.25 11.5 40.25H34.5C38.7342 40.25 42.1667 36.8175 42.1667 32.5833V13.4167C42.1667 9.18248 38.7342 5.75 34.5 5.75H11.5ZM12.2974 14.1372C11.6369 13.6968 10.7444 13.8753 10.304 14.5359C9.86359 15.1964 10.0421 16.0889 10.7027 16.5293L17.95 21.3609C21.0081 23.3996 24.992 23.3996 28.0501 21.3609L35.2974 16.5293C35.958 16.0889 36.1365 15.1964 35.6961 14.5359C35.2557 13.8753 34.3632 13.6968 33.7027 14.1372L26.4554 18.9687C24.363 20.3636 21.6371 20.3636 19.5447 18.9687L12.2974 14.1372Z" fill="white"/>
</svg>
