<svg width="44" height="44" viewBox="0 0 44 44" fill="none" xmlns="http://www.w3.org/2000/svg">
<path d="M19 19.9998C19 20.1324 19.0527 20.2595 19.1464 20.3533C19.2402 20.4471 19.3674 20.4998 19.5 20.4998C19.6326 20.4998 19.7598 20.4471 19.8536 20.3533C19.9473 20.2595 20 20.1324 20 19.9998V18.9998C20 18.8671 19.9473 18.74 19.8536 18.6462C19.7598 18.5524 19.6326 18.4998 19.5 18.4998C19.3674 18.4998 19.2402 18.5524 19.1464 18.6462C19.0527 18.74 19 18.8671 19 18.9998V19.9998ZM19 19.9998C19 21.3258 19.5268 22.5976 20.4645 23.5353C21.4021 24.473 22.6739 24.9998 24 24.9998M24 24.9998H25C25.1326 24.9998 25.2598 24.9471 25.3536 24.8533C25.4473 24.7595 25.5 24.6324 25.5 24.4998C25.5 24.3671 25.4473 24.24 25.3536 24.1462C25.2598 24.0524 25.1326 23.9998 25 23.9998H24C23.8674 23.9998 23.7402 24.0524 23.6464 24.1462C23.5527 24.24 23.5 24.3671 23.5 24.4998C23.5 24.6324 23.5527 24.7595 23.6464 24.8533C23.7402 24.9471 23.8674 24.9998 24 24.9998ZM13 30.9997L14.65 27.1997C13.3877 25.4078 12.8227 23.2168 13.061 21.0378C13.2994 18.8589 14.3248 16.8419 15.9447 15.3652C17.5646 13.8886 19.6677 13.0539 21.8594 13.0178C24.051 12.9817 26.1805 13.7467 27.8482 15.1691C29.5159 16.5915 30.6071 18.5737 30.9172 20.7436C31.2272 22.9135 30.7347 25.1219 29.5321 26.9545C28.3295 28.7871 26.4994 30.1177 24.3854 30.6968C22.2713 31.2759 20.0186 31.0636 18.05 30.0997L13 30.9997Z" stroke="#008ADF" stroke-width="1.5" stroke-linecap="round" stroke-linejoin="round"/>
</svg>
